<?xml version="1.0" encoding="UTF-8"?><svg id="Layer_2" xmlns="http://www.w3.org/2000/svg" viewBox="0 0 65 257.29"><g id="Layer_1-2"><path d="m39.24,129.14L64.7,12.43c.19-.78.3-1.59.3-2.43,0-5.16-3.91-9.41-8.93-9.94-.36-.04-.72-.06-1.08-.06-.56,0-1.11.05-1.65.14-1.56.26-2.99.88-4.22,1.77-1.05.76-1.96,1.73-2.66,2.88-.36.59-.66,1.22-.9,1.89L.65,125.1c-.87,2.28-.87,4.81,0,7.09l45,118.65c1.51,3.97,5.29,6.46,9.35,6.46.95,0,1.91-.14,2.86-.42,5.02-1.5,8.04-6.62,6.91-11.73l-25.53-116.01Z" style="fill:#603813;"/></g></svg>