<?xml version="1.0" encoding="utf-8"?>
<!-- Generator: Adobe Illustrator 27.6.0, SVG Export Plug-In . SVG Version: 6.00 Build 0)  -->
<svg version="1.1" id="Layer_1" xmlns="http://www.w3.org/2000/svg" xmlns:xlink="http://www.w3.org/1999/xlink" x="0px" y="0px"
	 viewBox="0 0 48 27" style="enable-background:new 0 0 48 27;" xml:space="preserve">
<style type="text/css">
	.st0{fill-rule:evenodd;clip-rule:evenodd;}
</style>
<g id="Icons">
	<g id="White" transform="translate(-301.000000, -469.000000)">
		<path id="Soundcloud" class="st0" d="M301,491.2c0,0.6,0.2,1.1,0.6,1.4c0.4,0.3,0.9,0.4,1.4,0.3c0.5-0.1,0.8-0.3,1-0.5
			c0.2-0.2,0.3-0.6,0.3-1.2v-6.6c0-0.5-0.2-0.9-0.5-1.2c-0.3-0.3-0.7-0.5-1.2-0.5c-0.4,0-0.8,0.2-1.2,0.5c-0.3,0.3-0.5,0.7-0.5,1.2
			V491.2L301,491.2z M306.1,494c0,0.4,0.2,0.8,0.5,1c0.3,0.2,0.7,0.3,1.2,0.3c0.5,0,0.9-0.1,1.2-0.3c0.3-0.2,0.5-0.5,0.5-1v-15.3
			c0-0.5-0.2-0.8-0.5-1.2c-0.3-0.3-0.7-0.5-1.2-0.5c-0.4,0-0.8,0.2-1.2,0.5c-0.3,0.3-0.5,0.7-0.5,1.2V494L306.1,494z M311.3,494.7
			c0,0.4,0.2,0.8,0.5,1c0.3,0.2,0.7,0.3,1.2,0.3c0.5,0,0.9-0.1,1.2-0.3c0.3-0.2,0.5-0.5,0.5-1v-14c0-0.5-0.2-0.9-0.5-1.2
			c-0.3-0.3-0.7-0.5-1.2-0.5c-0.5,0-0.9,0.2-1.2,0.5c-0.3,0.3-0.5,0.7-0.5,1.2L311.3,494.7L311.3,494.7z M316.4,494.8
			c0,0.8,0.6,1.2,1.7,1.2c1.1,0,1.7-0.4,1.7-1.2v-22.7c0-1.3-0.4-2-1.1-2.2c-0.5-0.1-1,0-1.5,0.4c-0.5,0.4-0.7,1-0.7,1.7
			L316.4,494.8L316.4,494.8z M321.6,495.4v-24.6c0-0.8,0.2-1.3,0.7-1.4c1-0.2,2-0.4,3-0.4c2.3,0,4.4,0.5,6.4,1.6
			c2,1.1,3.6,2.6,4.8,4.5c1.2,1.9,1.9,4,2.1,6.2c0.9-0.4,1.9-0.6,2.9-0.6c2.1,0,3.9,0.7,5.3,2.2c1.5,1.5,2.2,3.3,2.2,5.4
			c0,2.1-0.7,3.9-2.2,5.4c-1.5,1.5-3.3,2.2-5.3,2.2l-19.4,0c-0.1,0-0.2-0.1-0.3-0.2C321.6,495.6,321.6,495.5,321.6,495.4
			L321.6,495.4L321.6,495.4z"/>
	</g>
</g>
</svg>
